# xmcd CD database file
#
# Track frame offsets:
#	150
#	14278
#	29051
#	43373
#	61355
#	75593
#	90342
#	104319
#	116776
#	132450
#	146614
#	168385
#	182394
#
# Disc length: 2622 seconds
#
# Revision: 0
# Processed by: cddbd v1.5.2PL0 Copyright (c) Steve Scherf et al.
# Submitted via: CDex 1.51
#
DISCID=af0a3c0d
DTITLE=Tony Marshall - 1000 Mal an dich gedacht 
DYEAR=2009
DGENRE=Volkstümlich
TTITLE0=1000 Mal an dich gedacht 
TTITLE1=Ich träum von dir die ganze Nacht 
TTITLE2=No, no Marleen 
TTITLE3=Bora Bora 
TTITLE4=Holiday
TTITLE5=Ulah, Ulah, Eeh 
TTITLE6=Wenn ein Traum in Erfüllung geht 
TTITLE7=Funiculi Funicula 
TTITLE8=Sierra Madre 
TTITLE9=O' lala, das kann doch nicht so schwer sein 
TTITLE10=Canta Libre 
TTITLE11=A la mamma 
TTITLE12=Es liegt nur an Dir 
EXTD=YEAR: 2009
EXTT0=
EXTT1=
EXTT2=
EXTT3=
EXTT4=
EXTT5=
EXTT6=
EXTT7=
EXTT8=
EXTT9=
EXTT10=
EXTT11=
EXTT12=
PLAYORDER=
